<?xml version="1.0" encoding="UTF-8"?>
<svg id="Laag_1" data-name="Laag 1" xmlns="http://www.w3.org/2000/svg" version="1.1" viewBox="136 119 800 134">
  <defs>
    <style>
      .cls-1 {
        fill: #020a24;
      }

      .cls-1, .cls-2 {
        stroke-width: 0px;
      }

      .cls-2 {
        fill: #52b483;
      }
    </style>
  </defs>
  <g>
    <polygon class="cls-2" points="212.6 124.04 188.76 124.04 141.08 124.04 141.08 147.88 188.76 147.88 188.76 201.64 212.6 201.64 212.6 147.88 260.29 147.88 260.29 124.04 212.6 124.04"/>
    <polygon class="cls-2" points="236.45 224.24 164.92 224.24 164.92 171.72 141.08 171.72 141.08 224.24 141.08 248.08 164.92 248.08 236.45 248.08 260.29 248.08 260.29 224.24 260.29 171.72 236.45 171.72 236.45 224.24"/>
  </g>
  <g>
    <path class="cls-1" d="M302.81,224.23v-76.38h15.47v63.29h30.27v13.08h-45.74Z"/>
    <path class="cls-1" d="M378.37,225.46c-6.2,0-11.12-1.04-14.74-3.13-3.63-2.09-6.22-5.26-7.79-9.51-1.57-4.25-2.35-9.58-2.35-15.99,0-6.93.99-12.6,2.97-17,1.98-4.4,4.88-7.66,8.69-9.79,3.81-2.12,8.52-3.19,14.13-3.19,8.3,0,14.56,2.09,18.78,6.26,4.22,4.18,6.33,10.77,6.33,19.79l-.67,8.28h-35.21c.07,4.18.93,7.31,2.58,9.39,1.64,2.09,4.49,3.13,8.52,3.13,2.32,0,4.86-.06,7.62-.17,2.76-.11,5.51-.24,8.24-.39,2.73-.15,5.06-.3,7.01-.45l.34,10.4c-1.87.3-4.22.63-7.06,1.01-2.84.37-5.77.69-8.8.95-3.03.26-5.89.39-8.58.39ZM368.51,191.69h20.97c0-5.07-.8-8.61-2.41-10.62-1.61-2.01-4.2-3.02-7.79-3.02-2.39,0-4.37.45-5.94,1.34-1.57.89-2.77,2.35-3.59,4.36-.82,2.01-1.23,4.66-1.23,7.94Z"/>
    <path class="cls-1" d="M428.94,225.46c-5.83,0-10.22-1.47-13.17-4.42-2.95-2.94-4.43-7.4-4.43-13.36,0-4.17.75-7.44,2.24-9.78,1.49-2.35,3.72-4.06,6.67-5.14,2.95-1.08,6.56-1.73,10.82-1.96l13.68-1.23v-3.35c0-2.68-.67-4.57-2.02-5.65-1.35-1.08-3.33-1.62-5.94-1.62-2.09,0-4.5.08-7.23.22-2.73.15-5.42.34-8.07.56-2.65.22-4.95.45-6.9.67l-.45-10.51c1.94-.45,4.28-.91,7.01-1.4,2.73-.48,5.59-.88,8.58-1.17,2.99-.3,5.76-.45,8.3-.45,4.78,0,8.78.6,12,1.79,3.21,1.19,5.64,3.15,7.29,5.87,1.64,2.72,2.47,6.39,2.47,11.01v25.61c.15,1.04.71,1.85,1.68,2.4.97.56,2.09.95,3.36,1.17l-.34,10.29c-1.2,0-2.37.02-3.53.06-1.16.04-2.26.04-3.31,0-1.05-.04-1.98-.13-2.8-.28-1.72-.22-3.2-.67-4.43-1.34-1.23-.67-2.23-1.38-2.97-2.13-1.2.52-2.8,1.12-4.82,1.79-2.02.67-4.2,1.23-6.56,1.68-2.35.45-4.73.67-7.12.67ZM432.53,214.39c1.42,0,2.92-.15,4.48-.45,1.57-.3,3.04-.65,4.43-1.06,1.38-.41,2.48-.8,3.31-1.17v-12.86l-11.44,1.01c-2.47.22-4.24.95-5.33,2.18-1.08,1.23-1.63,2.96-1.63,5.2s.5,3.99,1.51,5.26c1.01,1.27,2.56,1.9,4.65,1.9Z"/>
    <path class="cls-1" d="M491.84,225.46c-2.69,0-5.16-.32-7.4-.95s-4.2-1.64-5.89-3.02c-1.68-1.38-3.1-3.19-4.26-5.42-1.16-2.24-2.04-4.98-2.63-8.22-.6-3.24-.9-7.03-.9-11.35,0-6.41.8-11.82,2.41-16.21,1.61-4.4,4.17-7.73,7.68-10.01,3.51-2.27,8.18-3.41,14.01-3.41,1.12,0,2.43.06,3.92.17,1.49.11,2.95.26,4.37.45,1.42.19,2.58.35,3.48.5v-22.81h15.02v79.06h-14.8l-.11-3.24c-1.05.6-2.41,1.25-4.09,1.96-1.68.71-3.46,1.3-5.33,1.79-1.87.48-3.7.73-5.49.73ZM495.65,212.94c1.35,0,2.71-.15,4.09-.45,1.38-.3,2.69-.65,3.92-1.06,1.23-.41,2.22-.8,2.97-1.17v-30.08c-.67-.15-1.57-.28-2.69-.39-1.12-.11-2.28-.22-3.48-.34-1.2-.11-2.28-.17-3.25-.17-2.92,0-5.18.67-6.78,2.01-1.61,1.34-2.75,3.3-3.42,5.87-.67,2.57-1.01,5.69-1.01,9.34,0,3.21.22,5.87.67,8,.45,2.13,1.1,3.8,1.96,5.03.86,1.23,1.89,2.11,3.08,2.63,1.19.52,2.5.78,3.92.78Z"/>
    <path class="cls-1" d="M549.69,224.23v-63.29h-20.63v-13.08h56.06v13.08h-19.96v63.29h-15.47Z"/>
    <path class="cls-1" d="M584.56,224.23v-56.14h14.91v6.6c1.27-.97,2.84-1.99,4.71-3.08,1.87-1.08,3.9-2.09,6.11-3.02,2.2-.93,4.32-1.55,6.33-1.85v14.43c-1.94.3-4,.8-6.17,1.51-2.17.71-4.21,1.47-6.11,2.29-1.91.82-3.53,1.57-4.88,2.24v37.01h-14.91Z"/>
    <path class="cls-1" d="M639.05,225.46c-5.83,0-10.22-1.47-13.17-4.42-2.95-2.94-4.43-7.4-4.43-13.36,0-4.17.75-7.44,2.24-9.78,1.49-2.35,3.72-4.06,6.67-5.14,2.95-1.08,6.56-1.73,10.82-1.96l13.68-1.23v-3.35c0-2.68-.67-4.57-2.02-5.65-1.35-1.08-3.33-1.62-5.94-1.62-2.09,0-4.5.08-7.23.22-2.73.15-5.42.34-8.07.56-2.65.22-4.95.45-6.89.67l-.45-10.51c1.94-.45,4.28-.91,7.01-1.4,2.73-.48,5.59-.88,8.58-1.17,2.99-.3,5.75-.45,8.3-.45,4.78,0,8.78.6,12,1.79,3.21,1.19,5.64,3.15,7.29,5.87,1.64,2.72,2.47,6.39,2.47,11.01v25.61c.15,1.04.71,1.85,1.68,2.4.97.56,2.09.95,3.36,1.17l-.34,10.29c-1.2,0-2.37.02-3.53.06-1.16.04-2.26.04-3.31,0-1.05-.04-1.98-.13-2.8-.28-1.72-.22-3.2-.67-4.43-1.34-1.23-.67-2.22-1.38-2.97-2.13-1.2.52-2.8,1.12-4.82,1.79-2.02.67-4.2,1.23-6.56,1.68-2.35.45-4.73.67-7.12.67ZM642.64,214.39c1.42,0,2.92-.15,4.48-.45,1.57-.3,3.05-.65,4.43-1.06,1.38-.41,2.48-.8,3.31-1.17v-12.86l-11.44,1.01c-2.47.22-4.24.95-5.33,2.18-1.08,1.23-1.63,2.96-1.63,5.2s.5,3.99,1.51,5.26c1.01,1.27,2.56,1.9,4.65,1.9Z"/>
    <path class="cls-1" d="M705.98,225.46c-6.43,0-11.46-.99-15.08-2.96-3.63-1.97-6.17-5.16-7.62-9.56-1.46-4.4-2.19-10.18-2.19-17.33s.82-12.73,2.47-16.94c1.64-4.21,4.32-7.23,8.02-9.06,3.7-1.83,8.54-2.74,14.52-2.74,1.57,0,3.4.11,5.49.34,2.09.22,4.2.5,6.33.84s3.94.65,5.44.95l-.56,11.97c-1.42-.15-3.03-.28-4.82-.39s-3.53-.22-5.21-.34c-1.68-.11-3.05-.17-4.09-.17-3.21,0-5.74.5-7.57,1.51-1.83,1.01-3.1,2.65-3.81,4.92-.71,2.28-1.07,5.31-1.07,9.11,0,4.1.34,7.38,1.01,9.84.67,2.46,1.89,4.21,3.64,5.26,1.75,1.04,4.35,1.57,7.79,1.57,1.05,0,2.43-.06,4.15-.17,1.72-.11,3.49-.24,5.33-.39,1.83-.15,3.46-.26,4.88-.34l.45,11.97c-1.5.3-3.29.62-5.38.95-2.09.34-4.21.62-6.33.84-2.13.22-4.06.34-5.77.34Z"/>
    <path class="cls-1" d="M733.11,224.23v-79.06h14.91v44.06l6.62-.22,11.66-20.91h15.58l-14.24,26.39,15.02,29.75h-15.7l-12.11-22.25-6.84.34v21.92h-14.91Z"/>
    <path class="cls-1" d="M790.07,224.23v-56.14h14.91v6.6c1.27-.97,2.84-1.99,4.71-3.08,1.87-1.08,3.9-2.09,6.11-3.02,2.2-.93,4.32-1.55,6.33-1.85v14.43c-1.94.3-4,.8-6.17,1.51-2.17.71-4.21,1.47-6.11,2.29-1.91.82-3.53,1.57-4.88,2.24v37.01h-14.91Z"/>
    <path class="cls-1" d="M826.4,224.23v-16.55h15.58v16.55h-15.58Z"/>
    <path class="cls-1" d="M853.86,159.15v-12.75h15.02v12.75h-15.02ZM853.86,224.23v-56.14h14.91v56.14h-14.91Z"/>
    <path class="cls-1" d="M905.44,225.46c-6.35,0-11.46-1.04-15.3-3.13-3.85-2.09-6.63-5.31-8.35-9.67-1.72-4.36-2.58-10.01-2.58-16.94s.9-12.17,2.69-16.38c1.79-4.21,4.63-7.34,8.52-9.39,3.89-2.05,8.89-3.08,15.02-3.08s11.23,1.03,15.08,3.08c3.85,2.05,6.69,5.18,8.52,9.39,1.83,4.21,2.75,9.67,2.75,16.38s-.86,12.58-2.58,16.94c-1.72,4.36-4.5,7.59-8.35,9.67-3.85,2.09-8.99,3.13-15.42,3.13ZM905.44,213.16c3.14,0,5.49-.58,7.06-1.73,1.57-1.15,2.63-3.02,3.19-5.59.56-2.57.84-5.94.84-10.12s-.34-7.36-1.01-9.79c-.67-2.42-1.79-4.15-3.36-5.2-1.57-1.04-3.81-1.57-6.73-1.57s-5.06.52-6.67,1.57c-1.61,1.04-2.75,2.78-3.42,5.2-.67,2.42-1.01,5.69-1.01,9.79s.28,7.55.84,10.12c.56,2.57,1.63,4.44,3.19,5.59,1.57,1.16,3.92,1.73,7.06,1.73Z"/>
  </g>
</svg>