<svg width="791" height="123" viewBox="0 0 791 123" fill="none" xmlns="http://www.w3.org/2000/svg">
<path d="M71.6001 0H47.7601H0.0800781V23.84H47.7601V77.6H71.6001V23.84H119.29V0H71.6001Z" fill="#52B483"/>
<path d="M95.37 98.48H23.84V45.96H0V98.48V122.32H23.84H95.37H119.21V98.48V45.96H95.37V98.48Z" fill="#52B483"/>
<path d="M161.81 100.19V23.8098H177.28V87.0998H207.55V100.18H161.81V100.19Z" fill="white"/>
<path d="M237.37 101.42C231.17 101.42 226.25 100.38 222.63 98.2898C219 96.1998 216.41 93.0298 214.84 88.7798C213.27 84.5298 212.49 79.1998 212.49 72.7898C212.49 65.8598 213.48 60.1898 215.46 55.7898C217.44 51.3898 220.34 48.1298 224.15 45.9998C227.96 43.8798 232.67 42.8098 238.28 42.8098C246.58 42.8098 252.84 44.8998 257.06 49.0698C261.28 53.2498 263.39 59.8398 263.39 68.8598L262.72 77.1398H227.51C227.58 81.3198 228.44 84.4498 230.09 86.5298C231.73 88.6198 234.58 89.6598 238.61 89.6598C240.93 89.6598 243.47 89.5998 246.23 89.4898C248.99 89.3798 251.74 89.2498 254.47 89.0998C257.2 88.9498 259.53 88.7998 261.48 88.6498L261.82 99.0498C259.95 99.3498 257.6 99.6798 254.76 100.06C251.92 100.43 248.99 100.75 245.96 101.01C242.93 101.27 240.07 101.4 237.38 101.4L237.37 101.42ZM227.51 67.6498H248.48C248.48 62.5798 247.68 59.0398 246.07 57.0298C244.46 55.0198 241.87 54.0098 238.28 54.0098C235.89 54.0098 233.91 54.4598 232.34 55.3498C230.77 56.2398 229.57 57.6998 228.75 59.7098C227.93 61.7198 227.52 64.3698 227.52 67.6498H227.51Z" fill="white"/>
<path d="M287.94 101.42C282.11 101.42 277.72 99.9498 274.77 96.9998C271.82 94.0598 270.34 89.5998 270.34 83.6398C270.34 79.4698 271.09 76.1998 272.58 73.8598C274.07 71.5098 276.3 69.7998 279.25 68.7198C282.2 67.6398 285.81 66.9898 290.07 66.7598L303.75 65.5298V62.1798C303.75 59.4998 303.08 57.6098 301.73 56.5298C300.38 55.4498 298.4 54.9098 295.79 54.9098C293.7 54.9098 291.29 54.9898 288.56 55.1298C285.83 55.2798 283.14 55.4698 280.49 55.6898C277.84 55.9098 275.54 56.1398 273.59 56.3598L273.14 45.8498C275.08 45.3998 277.42 44.9398 280.15 44.4498C282.88 43.9698 285.74 43.5698 288.73 43.2798C291.72 42.9798 294.49 42.8298 297.03 42.8298C301.81 42.8298 305.81 43.4298 309.03 44.6198C312.24 45.8098 314.67 47.7698 316.32 50.4898C317.96 53.2098 318.79 56.8798 318.79 61.4998V87.1098C318.94 88.1498 319.5 88.9598 320.47 89.5098C321.44 90.0698 322.56 90.4598 323.83 90.6798L323.49 100.97C322.29 100.97 321.12 100.99 319.96 101.03C318.8 101.07 317.7 101.07 316.65 101.03C315.6 100.99 314.67 100.9 313.85 100.75C312.13 100.53 310.65 100.08 309.42 99.4098C308.19 98.7398 307.19 98.0298 306.45 97.2798C305.25 97.7998 303.65 98.3998 301.63 99.0698C299.61 99.7398 297.43 100.3 295.07 100.75C292.72 101.2 290.34 101.42 287.95 101.42H287.94ZM291.53 90.3498C292.95 90.3498 294.45 90.1998 296.01 89.8998C297.58 89.5998 299.05 89.2498 300.44 88.8398C301.82 88.4298 302.92 88.0398 303.75 87.6698V74.8098L292.31 75.8198C289.84 76.0398 288.07 76.7698 286.98 77.9998C285.9 79.2298 285.35 80.9598 285.35 83.1998C285.35 85.4398 285.85 87.1898 286.86 88.4598C287.87 89.7298 289.42 90.3598 291.51 90.3598L291.53 90.3498Z" fill="white"/>
<path d="M350.84 101.42C348.15 101.42 345.68 101.1 343.44 100.47C341.2 99.8399 339.24 98.8299 337.55 97.4499C335.87 96.0699 334.45 94.2599 333.29 92.0299C332.13 89.7899 331.25 87.0499 330.66 83.8099C330.06 80.5699 329.76 76.7799 329.76 72.4599C329.76 66.0499 330.56 60.6399 332.17 56.2499C333.78 51.8499 336.34 48.5199 339.85 46.2399C343.36 43.9699 348.03 42.8299 353.86 42.8299C354.98 42.8299 356.29 42.8899 357.78 42.9999C359.27 43.1099 360.73 43.2599 362.15 43.4499C363.57 43.6399 364.73 43.7999 365.63 43.9499V21.1399H380.65V100.2H365.85L365.74 96.9599C364.69 97.5599 363.33 98.2099 361.65 98.9199C359.97 99.6299 358.19 100.22 356.32 100.71C354.45 101.19 352.62 101.44 350.83 101.44L350.84 101.42ZM354.65 88.8999C356 88.8999 357.36 88.7499 358.74 88.4499C360.12 88.1499 361.43 87.7999 362.66 87.3899C363.89 86.9799 364.88 86.5899 365.63 86.2199V56.1399C364.96 55.9899 364.06 55.8599 362.94 55.7499C361.82 55.6399 360.66 55.5299 359.46 55.4099C358.26 55.2999 357.18 55.2399 356.21 55.2399C353.29 55.2399 351.03 55.9099 349.43 57.2499C347.82 58.5899 346.68 60.5499 346.01 63.1199C345.34 65.6899 345 68.8099 345 72.4599C345 75.6699 345.22 78.3299 345.67 80.4599C346.12 82.5899 346.77 84.2599 347.63 85.4899C348.49 86.7199 349.52 87.5999 350.71 88.1199C351.9 88.6399 353.21 88.8999 354.63 88.8999H354.65Z" fill="white"/>
<path d="M408.69 100.19V36.8998H388.06V23.8198H444.12V36.8998H424.16V100.19H408.69Z" fill="white"/>
<path d="M443.56 100.19V44.0499H458.47V50.6499C459.74 49.6799 461.31 48.6599 463.18 47.5699C465.05 46.4899 467.08 45.4799 469.29 44.5499C471.49 43.6199 473.61 43 475.62 42.7V57.1299C473.68 57.4299 471.62 57.9299 469.45 58.6399C467.28 59.3499 465.24 60.1099 463.34 60.9299C461.43 61.7499 459.81 62.5 458.46 63.17V100.18H443.55L443.56 100.19Z" fill="white"/>
<path d="M498.05 101.42C492.22 101.42 487.83 99.9498 484.88 96.9998C481.93 94.0598 480.45 89.5998 480.45 83.6398C480.45 79.4698 481.2 76.1998 482.69 73.8598C484.18 71.5098 486.41 69.7998 489.36 68.7198C492.31 67.6398 495.92 66.9898 500.18 66.7598L513.86 65.5298V62.1798C513.86 59.4998 513.19 57.6098 511.84 56.5298C510.49 55.4498 508.51 54.9098 505.9 54.9098C503.81 54.9098 501.4 54.9898 498.67 55.1298C495.94 55.2798 493.25 55.4698 490.6 55.6898C487.95 55.9098 485.65 56.1398 483.71 56.3598L483.26 45.8498C485.2 45.3998 487.54 44.9398 490.27 44.4498C493 43.9698 495.86 43.5698 498.85 43.2798C501.84 42.9798 504.6 42.8298 507.15 42.8298C511.93 42.8298 515.93 43.4298 519.15 44.6198C522.36 45.8098 524.79 47.7698 526.44 50.4898C528.08 53.2098 528.91 56.8798 528.91 61.4998V87.1098C529.06 88.1498 529.62 88.9598 530.59 89.5098C531.56 90.0698 532.68 90.4598 533.95 90.6798L533.61 100.97C532.41 100.97 531.24 100.99 530.08 101.03C528.92 101.07 527.82 101.07 526.77 101.03C525.72 100.99 524.79 100.9 523.97 100.75C522.25 100.53 520.77 100.08 519.54 99.4098C518.31 98.7398 517.32 98.0298 516.57 97.2798C515.37 97.7998 513.77 98.3998 511.75 99.0698C509.73 99.7398 507.55 100.3 505.19 100.75C502.84 101.2 500.46 101.42 498.07 101.42H498.05ZM501.64 90.3498C503.06 90.3498 504.56 90.1998 506.12 89.8998C507.69 89.5998 509.17 89.2498 510.55 88.8398C511.93 88.4298 513.03 88.0398 513.86 87.6698V74.8098L502.42 75.8198C499.95 76.0398 498.18 76.7698 497.09 77.9998C496.01 79.2298 495.46 80.9598 495.46 83.1998C495.46 85.4398 495.96 87.1898 496.97 88.4598C497.98 89.7298 499.53 90.3598 501.62 90.3598L501.64 90.3498Z" fill="white"/>
<path d="M564.98 101.42C558.55 101.42 553.52 100.43 549.9 98.4598C546.27 96.4898 543.73 93.2998 542.28 88.8998C540.82 84.4998 540.09 78.7198 540.09 71.5698C540.09 64.4198 540.91 58.8398 542.56 54.6298C544.2 50.4198 546.88 47.3998 550.58 45.5698C554.28 43.7398 559.12 42.8298 565.1 42.8298C566.67 42.8298 568.5 42.9398 570.59 43.1698C572.68 43.3898 574.79 43.6698 576.92 44.0098C579.05 44.3498 580.86 44.6598 582.36 44.9598L581.8 56.9298C580.38 56.7798 578.77 56.6498 576.98 56.5398C575.19 56.4298 573.45 56.3198 571.77 56.1998C570.09 56.0898 568.72 56.0298 567.68 56.0298C564.47 56.0298 561.94 56.5298 560.11 57.5398C558.28 58.5498 557.01 60.1898 556.3 62.4598C555.59 64.7398 555.23 67.7698 555.23 71.5698C555.23 75.6698 555.57 78.9498 556.24 81.4098C556.91 83.8698 558.13 85.6198 559.88 86.6698C561.63 87.7098 564.23 88.2398 567.67 88.2398C568.72 88.2398 570.1 88.1798 571.82 88.0698C573.54 87.9598 575.31 87.8298 577.15 87.6798C578.98 87.5298 580.61 87.4198 582.03 87.3398L582.48 99.3098C580.98 99.6098 579.19 99.9298 577.1 100.26C575.01 100.6 572.89 100.88 570.77 101.1C568.64 101.32 566.71 101.44 565 101.44L564.98 101.42Z" fill="white"/>
<path d="M592.11 100.19V21.1299H607.02V65.1899L613.64 64.9699L625.3 44.0599H640.88L626.64 70.4499L641.66 100.2H625.96L613.85 77.9499L607.01 78.2899V100.21H592.1L592.11 100.19Z" fill="white"/>
<path d="M649.07 100.19V44.0499H663.98V50.6499C665.25 49.6799 666.82 48.6599 668.69 47.5699C670.56 46.4899 672.59 45.4799 674.8 44.5499C677 43.6199 679.12 43 681.13 42.7V57.1299C679.19 57.4299 677.13 57.9299 674.96 58.6399C672.79 59.3499 670.75 60.1099 668.85 60.9299C666.94 61.7499 665.32 62.5 663.97 63.17V100.18H649.06L649.07 100.19Z" fill="white"/>
<path d="M685.4 100.19V83.6399H700.98V100.19H685.4Z" fill="white"/>
<path d="M712.86 35.1099V22.3599H727.88V35.1099H712.86ZM712.86 100.19V44.0499H727.77V100.19H712.86Z" fill="white"/>
<path d="M764.44 101.42C758.09 101.42 752.98 100.38 749.14 98.2898C745.29 96.1998 742.51 92.9798 740.79 88.6198C739.07 84.2598 738.21 78.6098 738.21 71.6798C738.21 64.7498 739.11 59.5098 740.9 55.2998C742.69 51.0898 745.53 47.9598 749.42 45.9098C753.31 43.8598 758.31 42.8298 764.44 42.8298C770.57 42.8298 775.67 43.8598 779.52 45.9098C783.37 47.9598 786.21 51.0898 788.04 55.2998C789.87 59.5098 790.79 64.9698 790.79 71.6798C790.79 78.3898 789.93 84.2598 788.21 88.6198C786.49 92.9798 783.71 96.2098 779.86 98.2898C776.01 100.38 770.87 101.42 764.44 101.42ZM764.44 89.1198C767.58 89.1198 769.93 88.5398 771.5 87.3898C773.07 86.2398 774.13 84.3698 774.69 81.7998C775.25 79.2298 775.53 75.8598 775.53 71.6798C775.53 67.4998 775.19 64.3198 774.52 61.8898C773.85 59.4698 772.73 57.7398 771.16 56.6898C769.59 55.6498 767.35 55.1198 764.43 55.1198C761.51 55.1198 759.37 55.6398 757.76 56.6898C756.15 57.7298 755.01 59.4698 754.34 61.8898C753.67 64.3098 753.33 67.5798 753.33 71.6798C753.33 75.7798 753.61 79.2298 754.17 81.7998C754.73 84.3698 755.8 86.2398 757.36 87.3898C758.93 88.5498 761.28 89.1198 764.42 89.1198H764.44Z" fill="white"/>
</svg>
